<svg width="20" height="20" viewBox="0 0 20 20" fill="none" xmlns="http://www.w3.org/2000/svg">
<path d="M18.258 3.266c-.363.161-.753.27-1.163.32.417-.25.737-.646.888-1.118-.39.231-.822.4-1.282.49-.368-.392-.892-.637-1.472-.637-1.114 0-2.016.903-2.016 2.016 0 .158.018.312.052.46-1.675-.084-3.16-.886-4.154-2.105-.173.297-.272.642-.272 1.01 0 .699.356 1.316.896 1.677-.33-.01-.64-.101-.91-.252v.025c0 .977.695 1.792 1.618 1.977-.169.046-.347.07-.531.07-.13 0-.256-.013-.379-.037.256.8 1 1.383 1.881 1.399-.689.54-1.557.862-2.5.862-.162 0-.322-.009-.48-.027.89.57 1.946.902 3.08.902 3.696 0 5.716-3.062 5.716-5.716 0-.087-.002-.174-.006-.26.393-.284.733-.638 1.002-1.042z" fill="#4e5d78"/>
</svg>
