<?xml version="1.0" encoding="UTF-8"?>
<svg id="Layer_1" data-name="Layer 1" xmlns="http://www.w3.org/2000/svg" viewBox="0 0 2997.23 745.18">
  <defs>
    <style>
      .cls-1 {
        fill: #002b5c;
      }
    </style>
  </defs>
  <g>
    <path class="cls-1" d="m592.23,482.05c11.99-24.33,20.06-50.9,23.5-78.93-56.86-73.42-145.84-120.69-245.9-120.69s-189.03,47.33-245.89,120.77c3.89,31.65,13.69,61.46,28.35,88.26,56.62-59.17,136.3-96.08,224.66-96.08,83.58,0,159.39,33.03,215.27,86.68Z"/>
    <path class="cls-1" d="m376.95,206.31c92.82,0,176.1,40.72,233.08,105.21-27.24-107.29-124.44-186.66-240.2-186.66-124.19,0-227.03,91.35-245.02,210.51,56.49-78.16,148.35-129.06,252.15-129.06Z"/>
    <path class="cls-1" d="m369.83,471.5c-70.49,0-135.46,23.49-187.59,63.02,45.44,52.63,112.6,85.98,187.59,85.98s142.12-33.34,187.57-85.95c-52.14-39.53-117.08-63.05-187.57-63.05Z"/>
  </g>
  <g>
    <g>
      <path class="cls-1" d="m2269.52,539.68c4.96-2.58,10.57-3.87,16.82-3.87,7.15,0,13.67,1.76,19.57,5.28,5.9,3.53,10.54,8.46,13.92,14.81,3.37,6.35,5.06,13.64,5.06,21.88s-1.69,15.61-5.06,22.11c-3.38,6.5-8.02,11.56-13.92,15.18-5.91,3.62-12.43,5.43-19.57,5.43-6.25,0-11.81-1.27-16.67-3.8-3.24-1.69-6.09-3.65-8.53-5.89-1.3-1.19-3.37-.34-3.37,1.41v43.93c0,1.1-.89,2-2,2h-12.97c-1.1,0-2-.89-2-2v-117.02c0-1.1.89-2,2-2h12.97c1.1,0,2,.89,2,2v4.92c0,1.74,2.07,2.65,3.34,1.46,2.36-2.2,5.16-4.15,8.42-5.85Zm34.61,23.44c-2.33-4.12-5.41-7.24-9.23-9.38-3.82-2.13-7.92-3.2-12.28-3.2s-8.31,1.09-12.13,3.28c-3.82,2.18-6.9,5.36-9.23,9.53-2.33,4.17-3.5,9.08-3.5,14.74s1.16,10.59,3.5,14.81c2.33,4.22,5.41,7.42,9.23,9.6,3.82,2.18,7.86,3.27,12.13,3.27s8.46-1.12,12.28-3.35c3.82-2.23,6.89-5.48,9.23-9.75,2.33-4.26,3.5-9.23,3.5-14.89s-1.17-10.54-3.5-14.66Z"/>
      <path class="cls-1" d="m2346.75,555.9c3.42-6.35,8.09-11.29,13.99-14.81,5.9-3.52,12.43-5.28,19.57-5.28,6.45,0,12.08,1.27,16.89,3.8,3.14,1.65,5.87,3.57,8.19,5.75,1.27,1.2,3.35.29,3.35-1.45v-4.75c0-1.1.89-2,2-2h13.12c1.1,0,2,.89,2,2v78.02c0,1.1-.89,2-2,2h-13.12c-1.1,0-2-.89-2-2v-4.98c0-1.75-2.08-2.65-3.35-1.45-2.36,2.24-5.16,4.21-8.41,5.9-4.96,2.58-10.62,3.87-16.97,3.87-7.05,0-13.5-1.81-19.35-5.43-5.86-3.62-10.49-8.68-13.92-15.18-3.42-6.5-5.14-13.87-5.14-22.11s1.71-15.53,5.14-21.88Zm58.5,7.44c-2.33-4.17-5.39-7.34-9.15-9.53-3.77-2.18-7.84-3.28-12.21-3.28s-8.43,1.07-12.2,3.2c-3.77,2.13-6.82,5.26-9.15,9.38-2.33,4.12-3.5,9.01-3.5,14.66s1.17,10.62,3.5,14.89c2.33,4.27,5.41,7.52,9.23,9.75,3.82,2.23,7.86,3.35,12.13,3.35s8.43-1.09,12.21-3.27c3.77-2.18,6.82-5.38,9.15-9.6,2.33-4.22,3.5-9.15,3.5-14.81s-1.17-10.57-3.5-14.74Z"/>
      <path class="cls-1" d="m2480.61,539.31c3.61-2.04,7.81-3.19,12.6-3.44,1.13-.06,2.06.88,2.06,2.01v13.5c0,1.1-.89,2-2,2h-2.32c-6.65,0-11.69,1.69-15.11,5.06-3.42,3.37-5.13,9.23-5.13,17.56v41.17c0,1.1-.89,2-2,2h-12.97c-1.1,0-2-.89-2-2v-78.02c0-1.1.89-2,2-2h12.97c1.1,0,2,.89,2,2v3.9c0,1.85,2.24,2.66,3.5,1.31,1.85-2,3.98-3.68,6.4-5.04Z"/>
      <path class="cls-1" d="m2538.26,550.99c-1.1,0-2,.89-2,2v43.4c0,3.08.72,5.28,2.16,6.62,1.44,1.34,3.89,2.01,7.37,2.01h8.42c1.1,0,2,.89,2,2v10.14c0,1.1-.89,2-2,2h-11.4c-7.64,0-13.5-1.79-17.56-5.36-4.07-3.57-6.1-9.38-6.1-17.42v-43.4c0-1.1-.89-2-2-2h-5.68c-1.1,0-2-.89-2-2v-9.84c0-1.1.89-2,2-2h5.68c1.1,0,2-.89,2-2v-16.39c0-1.1.89-2,2-2h13.12c1.1,0,2,.89,2,2v16.39c0,1.1.89,2,2,2h15.95c1.1,0,2,.89,2,2v9.84c0,1.1-.89,2-2,2h-15.95Z"/>
      <path class="cls-1" d="m2636.11,539.83c5.11,2.68,9.1,6.65,11.98,11.91,2.88,5.26,4.32,11.61,4.32,19.05v46.38c0,1.1-.89,2-2,2h-12.82c-1.1,0-2-.89-2-2v-43.85c0-7.34-1.84-12.97-5.51-16.89-3.67-3.92-8.69-5.88-15.03-5.88s-11.39,1.96-15.11,5.88c-3.72,3.92-5.58,9.55-5.58,16.89v43.85c0,1.1-.89,2-2,2h-12.97c-1.1,0-2-.89-2-2v-78.02c0-1.1.89-2,2-2h12.97c1.1,0,2,.89,2,2v2.52c0,1.68,1.97,2.64,3.25,1.55,2.14-1.84,4.61-3.36,7.4-4.58,4.32-1.88,8.91-2.83,13.77-2.83,6.45,0,12.23,1.34,17.34,4.02Z"/>
      <path class="cls-1" d="m2743.04,584.48h-58.67c-1.25,0-2.17,1.13-1.97,2.37.85,5.46,3.19,9.93,7.02,13.41,4.36,3.97,9.72,5.95,16.07,5.95,8.69,0,14.96-3.46,18.79-10.4.36-.64,1.02-1.07,1.75-1.07h14.23c1.45,0,2.39,1.48,1.84,2.82-2.61,6.28-6.75,11.51-12.42,15.71-6.5,4.81-14.56,7.22-24.19,7.22-7.84,0-14.86-1.76-21.06-5.28-6.2-3.52-11.07-8.48-14.59-14.89-3.52-6.4-5.28-13.82-5.28-22.25s1.71-15.85,5.14-22.25c3.42-6.4,8.24-11.34,14.44-14.81,6.2-3.47,13.32-5.21,21.36-5.21s14.64,1.69,20.69,5.06c6.05,3.37,10.77,8.11,14.14,14.22,3.37,6.1,5.06,13.12,5.06,21.06,0,2.38-.12,4.58-.36,6.61-.12.99-.98,1.73-1.98,1.73Zm-17.5-13.69c1.21,0,2.12-1.07,1.99-2.28-.55-5.2-2.74-9.45-6.56-12.75-4.37-3.77-9.77-5.66-16.22-5.66-5.86,0-10.87,1.86-15.03,5.58-3.62,3.23-5.96,7.45-7.04,12.65-.26,1.26.67,2.45,1.96,2.45h40.91Z"/>
      <path class="cls-1" d="m2785.15,539.31c3.61-2.04,7.81-3.19,12.6-3.44,1.13-.06,2.06.88,2.06,2.01v13.5c0,1.1-.89,2-2,2h-2.32c-6.65,0-11.69,1.69-15.11,5.06-3.42,3.37-5.13,9.23-5.13,17.56v41.17c0,1.1-.89,2-2,2h-12.97c-1.1,0-2-.89-2-2v-78.02c0-1.1.89-2,2-2h12.97c1.1,0,2,.89,2,2v3.9c0,1.85,2.24,2.66,3.5,1.31,1.85-2,3.98-3.68,6.4-5.04Z"/>
      <path class="cls-1" d="m2824.1,617.01c-5.11-2.33-9.15-5.51-12.13-9.53-2.5-3.38-4.03-7.09-4.56-11.14-.16-1.22.74-2.33,1.98-2.33h13.67c.9,0,1.74.59,1.93,1.47.59,2.83,2.18,5.24,4.77,7.23,3.02,2.33,6.82,3.5,11.39,3.5s8.46-.92,11.09-2.75c2.63-1.83,3.94-4.19,3.94-7.07,0-3.07-1.46-5.36-4.39-6.85-2.93-1.49-7.57-3.13-13.92-4.91-6.15-1.69-11.16-3.32-15.03-4.91-3.87-1.59-7.22-4.02-10.05-7.29-2.83-3.27-4.24-7.59-4.24-12.95,0-4.36,1.29-8.36,3.87-11.98,2.58-3.62,6.27-6.47,11.09-8.56,4.81-2.08,10.34-3.12,16.6-3.12,9.33,0,16.84,2.36,22.55,7.07,5.16,4.27,8.15,9.93,8.97,17,.14,1.2-.77,2.28-1.99,2.28h-13.05c-.92,0-1.78-.62-1.94-1.53-.55-2.96-1.97-5.38-4.26-7.25-2.68-2.18-6.3-3.27-10.86-3.27s-7.89.84-10.27,2.53c-1.83,1.29-2.95,2.91-3.38,4.84-.75,3.39,1.08,6.8,3.94,8.78,1.2.83,2.55,1.53,4.05,2.08,2.28.84,5.66,1.91,10.12,3.2,5.95,1.59,10.84,3.2,14.66,4.84,3.82,1.64,7.12,4.04,9.9,7.22,2.77,3.18,4.22,7.39,4.32,12.65,0,4.66-1.29,8.83-3.87,12.5-2.58,3.67-6.23,6.55-10.94,8.63-4.71,2.08-10.25,3.13-16.6,3.13s-12.23-1.17-17.34-3.5Z"/>
    </g>
    <rect class="cls-1" x="739.43" y="573.88" width="1440.21" height="7.3"/>
    <g>
      <path class="cls-1" d="m798.9,160.42v293.6h-59.47V160.42h59.47Z"/>
      <path class="cls-1" d="m1117.47,454.02h-59.47l-134.65-201.49v201.49h-59.47V160.01h59.47l134.65,201.9v-201.9h59.47v294.02Z"/>
      <path class="cls-1" d="m1436.05,454.02h-59.47l-134.65-201.49v201.49h-59.47V160.01h59.47l134.65,201.9v-201.9h59.47v294.02Z"/>
      <path class="cls-1" d="m1553.7,437.62c-23.22-12.9-41.63-30.77-55.22-53.63-13.59-22.85-20.39-48.72-20.39-77.6s6.8-54.33,20.39-77.19c13.59-22.85,32-40.72,55.22-53.63,23.22-12.88,48.7-19.34,76.46-19.34s53.58,6.46,76.67,19.34c23.07,12.91,41.35,30.78,54.79,53.63,13.45,22.86,20.18,48.58,20.18,77.19s-6.73,54.75-20.18,77.6c-13.45,22.86-31.79,40.74-55.01,53.63-23.22,12.9-48.71,19.34-76.45,19.34s-53.25-6.44-76.46-19.34Zm123.61-45.22c13.59-7.99,24.21-19.42,31.86-34.28,7.64-14.86,11.47-32.11,11.47-51.74s-3.83-36.8-11.47-51.53c-7.64-14.73-18.26-26.01-31.86-33.87-13.6-7.84-29.31-11.78-47.15-11.78s-33.63,3.93-47.37,11.78c-13.74,7.86-24.42,19.14-32.06,33.87-7.65,14.73-11.47,31.91-11.47,51.53s3.82,36.88,11.47,51.74c7.64,14.86,18.33,26.29,32.06,34.28,13.73,7.99,29.53,11.99,47.37,11.99s33.55-4,47.15-11.99Z"/>
      <path class="cls-1" d="m2081.68,160.42l-108.74,293.6h-72.21l-108.74-293.6h63.72l81.55,233.45,81.13-233.45h63.29Z"/>
      <path class="cls-1" d="m2174.71,207.96v73.6h99.82v46.7h-99.82v77.82h112.56v47.95h-172.03V160.01h172.03v47.95h-112.56Z"/>
      <path class="cls-1" d="m2492.01,454.02l-65.42-114.42h-28.03v114.42h-59.47V160.42h111.29c22.94,0,42.48,4,58.62,11.99,16.14,7.99,28.25,18.79,36.32,32.39,8.07,13.61,12.1,28.81,12.1,45.64,0,19.34-5.66,36.8-16.99,52.37-11.33,15.57-28.18,26.29-50.55,32.17l70.94,119.04h-68.82Zm-93.45-158.58h49.7c16.14,0,28.17-3.85,36.11-11.56,7.93-7.71,11.89-18.43,11.89-32.19s-3.97-23.9-11.89-31.33c-7.93-7.43-19.96-11.15-36.11-11.15h-49.7v86.23Z"/>
      <path class="cls-1" d="m2782.56,398.08h-118.09l-19.54,55.94h-62.44l106.62-294.02h69.23l106.62,294.02h-62.87l-19.54-55.94Zm-16.14-47.11l-42.9-122.83-42.9,122.83h85.8Z"/>
    </g>
  </g>
</svg>