<svg xmlns="http://www.w3.org/2000/svg" xmlns:xlink="http://www.w3.org/1999/xlink" id="svg" version="1.1" viewBox="70.72 165.8 253.28 85.19">
    <g id="svgg">
        <path id="path1" d="M179.840 166.040 C 179.378 166.502,179.513 174.339,179.987 174.593 C 180.644 174.945,184.913 174.858,185.286 174.486 C 185.693 174.079,185.760 166.440,185.360 166.040 C 185.199 165.879,184.293 165.800,182.600 165.800 C 180.907 165.800,180.001 165.879,179.840 166.040 M88.327 184.013 C 84.446 184.551,80.209 186.124,76.100 188.553 C 73.798 189.914,73.676 190.170,74.526 191.857 C 75.739 194.265,76.013 194.386,77.803 193.298 C 91.613 184.909,104.107 189.178,104.268 202.340 C 104.311 205.871,104.353 205.827,101.568 205.137 C 82.658 200.448,67.830 208.523,71.194 221.678 C 74.257 233.654,91.437 236.377,102.677 226.669 C 104.877 224.769,105.200 224.771,105.200 226.680 C 105.200 230.257,108.387 232.679,111.857 231.740 C 113.245 231.364,113.206 227.370,111.807 226.567 C 110.438 225.782,110.512 226.545,110.391 211.809 L 110.281 198.500 109.754 196.558 C 107.317 187.581,98.755 182.568,88.327 184.013 M144.100 183.999 C 139.586 184.670,135.524 186.823,131.957 190.433 C 129.232 193.191,129.206 193.168,129.202 188.061 C 129.199 184.565,129.227 184.600,126.500 184.600 C 125.185 184.600,124.567 184.685,124.245 184.911 L 123.800 185.223 123.800 217.807 L 123.800 250.391 124.291 250.713 C 124.916 251.122,129.217 251.064,129.641 250.640 C 129.846 250.434,129.921 247.575,130.000 236.907 C 130.055 229.496,130.165 223.368,130.244 223.289 C 130.323 223.210,131.538 224.320,132.944 225.756 C 138.808 231.746,145.577 233.884,152.860 232.047 C 163.001 229.489,169.974 218.354,168.991 206.289 C 167.867 192.497,156.342 182.177,144.100 183.999 M215.500 184.119 C 198.852 187.066,190.644 206.599,199.735 221.637 C 208.209 235.655,228.559 236.340,238.030 222.926 C 250.498 205.268,236.103 180.473,215.500 184.119 M301.800 183.947 C 301.330 184.127,283.997 194.193,283.078 194.820 C 281.744 195.730,281.785 195.289,281.845 208.149 L 281.900 219.793 282.500 220.386 C 283.072 220.951,300.398 231.165,301.744 231.730 C 303.188 232.336,302.258 232.772,313.637 226.162 C 323.268 220.567,323.460 220.436,323.783 219.275 C 324.050 218.311,324.074 197.661,323.809 196.519 C 323.531 195.318,323.330 195.181,313.210 189.308 C 303.346 183.583,303.078 183.457,301.800 183.947 M272.200 184.703 C 267.777 185.607,264.006 188.220,260.726 192.657 C 258.835 195.214,258.807 195.171,258.803 189.650 C 258.799 184.351,258.940 184.600,255.945 184.600 C 254.408 184.600,253.777 184.679,253.445 184.911 L 253.000 185.223 253.000 208.073 C 253.000 227.492,253.043 230.982,253.284 231.312 C 253.695 231.874,258.186 231.900,258.743 231.343 C 259.077 231.009,259.106 230.061,259.200 216.443 L 259.300 201.900 260.055 200.318 C 262.696 194.786,267.456 191.365,273.972 190.314 C 276.472 189.911,276.400 190.001,276.400 187.290 C 276.400 184.199,275.969 183.933,272.200 184.703 M180.045 184.911 L 179.600 185.223 179.600 208.187 C 179.600 229.304,179.627 231.173,179.931 231.426 C 180.169 231.624,180.912 231.700,182.600 231.700 C 184.288 231.700,185.031 231.624,185.269 231.426 C 185.573 231.173,185.600 229.304,185.600 208.187 L 185.600 185.223 185.155 184.911 C 184.821 184.677,184.187 184.600,182.600 184.600 C 181.013 184.600,180.379 184.677,180.045 184.911 M149.400 189.824 C 161.353 192.777,166.719 208.515,159.537 219.557 C 152.330 230.637,137.231 229.254,130.713 216.917 L 129.983 215.535 130.041 207.606 L 130.100 199.678 130.852 198.157 C 133.968 191.855,142.359 188.085,149.400 189.824 M223.564 189.931 C 233.710 192.831,239.181 205.278,234.933 215.794 C 229.190 230.014,211.096 231.022,204.338 217.500 C 197.149 203.117,209.207 185.827,223.564 189.931 M310.795 193.950 C 316.011 196.978,318.367 198.452,318.545 198.800 C 318.743 199.188,318.789 201.262,318.750 208.046 L 318.700 216.791 318.200 217.281 C 317.378 218.086,303.317 226.200,302.744 226.200 C 302.424 226.200,287.963 217.809,287.391 217.292 C 286.901 216.849,286.769 199.182,287.250 198.546 C 287.740 197.899,302.257 189.600,302.898 189.600 C 303.119 189.600,306.673 191.558,310.795 193.950 M95.843 208.309 C 100.807 208.990,103.976 210.078,104.264 211.200 C 104.693 212.872,104.320 218.025,103.669 219.415 C 99.171 229.020,81.942 230.861,77.738 222.186 C 73.348 213.126,82.092 206.424,95.843 208.309 " stroke="none" fill="#705023" fill-rule="evenodd"/>
    </g>
</svg>